<svg viewBox="0 0 16 16" fill="none" xmlns="http://www.w3.org/2000/svg">
    <path d="M9.45215 1.0498C10.4791 1.05012 11.324 1.82466 11.4375 2.82129H13.4023C13.8163 2.82155 14.1523 3.1573 14.1523 3.57129C14.1523 3.98529 13.8163 4.32103 13.4023 4.32129H13.1396V13.3662C13.1396 14.2404 12.4307 14.9489 11.5566 14.9492H4.44629C3.57204 14.9491 2.86338 14.2405 2.86328 13.3662V4.32129H2.60059C2.18641 4.32129 1.84967 3.98545 1.84961 3.57129C1.84968 3.15714 2.18642 2.82129 2.60059 2.82129H4.56543C4.67898 1.82459 5.52373 1.04994 6.55078 1.0498H9.45215ZM4.36328 13.3662C4.36338 13.4121 4.40047 13.4491 4.44629 13.4492H11.5566C11.6023 13.4489 11.6396 13.4119 11.6396 13.3662V4.32129H4.36328V13.3662ZM6.31348 5.65527C6.72752 5.65539 7.06337 5.99123 7.06348 6.40527V11.0107C7.06348 11.4249 6.72759 11.7606 6.31348 11.7607C5.89926 11.7607 5.56348 11.425 5.56348 11.0107V6.40527C5.56359 5.99115 5.89933 5.65527 6.31348 5.65527ZM9.68945 5.65527C10.1033 5.6556 10.4393 5.99135 10.4395 6.40527V11.0107C10.4395 11.4248 10.1034 11.7604 9.68945 11.7607C9.27524 11.7607 8.93945 11.425 8.93945 11.0107V6.40527C8.93956 5.99115 9.27531 5.65527 9.68945 5.65527ZM6.55078 2.5498C6.35773 2.54991 6.1926 2.66102 6.10938 2.82129H9.89453C9.81147 2.66076 9.64531 2.55005 9.45215 2.5498H6.55078Z"
          fill="currentColor"/>
</svg>
