<svg viewBox="0 0 24 24" fill="none" xmlns="http://www.w3.org/2000/svg">
    <path d="M14.8027 1.9502C15.9071 1.95044 16.8027 2.84578 16.8027 3.9502V4.60742H20.1035C20.5175 4.60771 20.8535 4.94339 20.8535 5.35742C20.8533 5.77125 20.5173 6.10713 20.1035 6.10742H19.334V20.4658C19.3338 21.34 18.6252 22.0496 17.751 22.0498H6.25293C5.37857 22.0498 4.6691 21.3401 4.66895 20.4658V6.10742H3.90039C3.48633 6.10742 3.15064 5.77143 3.15039 5.35742C3.15039 4.94321 3.48618 4.60742 3.90039 4.60742H7.20117V3.9502C7.20117 2.84563 8.0966 1.9502 9.20117 1.9502H14.8027ZM6.16895 20.4658C6.1691 20.5117 6.207 20.5498 6.25293 20.5498H17.751C17.7967 20.5496 17.8338 20.5116 17.834 20.4658V6.10742H6.16895V20.4658ZM9.46973 8.8584C9.88394 8.8584 10.2197 9.19418 10.2197 9.6084V16.5166C10.2196 16.9307 9.88388 17.2666 9.46973 17.2666C9.05565 17.2665 8.71983 16.9307 8.71973 16.5166V9.6084C8.71973 9.19424 9.05559 8.85848 9.46973 8.8584ZM14.5332 8.8584C14.9474 8.85845 15.2832 9.19422 15.2832 9.6084V16.5166C15.2831 16.9307 14.9473 17.2666 14.5332 17.2666C14.1191 17.2665 13.7833 16.9307 13.7832 16.5166V9.6084C13.7832 9.19424 14.1191 8.85848 14.5332 8.8584ZM9.20117 3.4502C8.92503 3.4502 8.70117 3.67405 8.70117 3.9502V4.60742H15.3027V3.9502C15.3027 3.67421 15.0787 3.45044 14.8027 3.4502H9.20117Z"
          fill="currentColor" fill-opacity="0.5"/>
</svg>
